<?xml version="1.0" standalone="no"?>
<!DOCTYPE svg PUBLIC "-//W3C//DTD SVG 20010904//EN"
 "http://www.w3.org/TR/2001/REC-SVG-20010904/DTD/svg10.dtd">
<svg version="1.0" xmlns="http://www.w3.org/2000/svg"
 width="171.000000pt" height="171.000000pt" viewBox="0 0 171.000000 171.000000"
 preserveAspectRatio="xMidYMid meet">
<metadata>
Created by potrace 1.11, written by Peter Selinger 2001-2013
</metadata>
<g transform="translate(0.000000,171.000000) scale(0.100000,-0.100000)"
fill="#000000" stroke="none">
<path d="M0 860 l0 -630 855 0 855 0 0 630 0 630 -855 0 -855 0 0 -630z m507
474 c43 -9 105 -28 140 -44 69 -32 167 -116 159 -137 -3 -8 -2 -12 3 -9 10 7
30 -34 57 -114 26 -78 26 -273 0 -350 -77 -225 -263 -320 -628 -320 l-98 0 0
495 0 495 145 0 c94 0 173 -6 222 -16z m1082 -54 l1 -70 -105 0 -105 0 0 -425
0 -425 -80 0 -80 0 0 425 0 425 -105 0 -105 0 0 70 0 70 289 0 289 0 1 -70z"/>
<path d="M300 861 c0 -337 0 -340 21 -346 50 -16 219 20 281 60 87 57 135 181
124 320 -14 194 -143 305 -352 305 l-74 0 0 -339z"/>
</g>
</svg>
